<svg width="31" height="36" viewBox="0 0 31 36" fill="none" xmlns="http://www.w3.org/2000/svg">
<path d="M16.1387 0.0294746C18.0693 0 19.9851 0.0147373 21.901 0C22.0189 2.25481 22.8294 4.55383 24.48 6.14546C26.1306 7.7813 28.4591 8.5329 30.7286 8.78344V14.7226C28.6065 14.6489 26.4696 14.2068 24.539 13.2931C23.6989 12.9099 22.9179 12.4236 22.1515 11.9225C22.1368 16.2258 22.1663 20.5291 22.122 24.8176C22.0041 26.8809 21.3262 28.9293 20.1325 30.6241C18.2019 33.4537 14.8565 35.2959 11.4227 35.3548C9.31531 35.4727 7.20788 34.898 5.40992 33.8369C2.43299 32.0831 0.340287 28.8704 0.0308035 25.4219C0.00132885 24.685 -0.0134084 23.9481 0.0160662 23.226C0.281338 20.4259 1.66665 17.7437 3.81829 15.9163C6.26469 13.7941 9.68375 12.7773 12.8817 13.3815C12.9112 15.5626 12.8228 17.7437 12.8228 19.9248C11.3638 19.4533 9.65427 19.5859 8.37213 20.4701C7.44367 21.0744 6.73628 22.0028 6.36785 23.0492C6.05837 23.8008 6.14679 24.6261 6.16153 25.4219C6.51522 27.8388 8.84372 29.8725 11.3196 29.6515C12.9702 29.6367 14.5471 28.6788 15.4018 27.2788C15.6818 26.7924 15.9913 26.2914 16.0061 25.7166C16.1534 23.0786 16.0945 20.4554 16.1092 17.8174C16.124 11.8783 16.0945 5.95387 16.1387 0.0294746Z" fill="#A5A988"/>
</svg>
