<svg width="32" height="14" viewBox="0 0 32 14" fill="none" xmlns="http://www.w3.org/2000/svg">
<path d="M24.6286 14C24.4231 14 24.2177 13.9281 24.0555 13.7742C23.7419 13.4764 23.7419 12.9837 24.0555 12.686L30.0458 6.99871L24.0555 1.31146C23.7419 1.01375 23.7419 0.520991 24.0555 0.223282C24.3691 -0.0744272 24.8881 -0.0744272 25.2016 0.223282L31.765 6.45462C32.0786 6.75233 32.0786 7.24509 31.765 7.5428L25.2016 13.7742C25.0395 13.9281 24.834 14 24.6286 14Z" fill="#35312B"/>
<path d="M30.6907 7.69958H1.30933C0.593562 7.69958 0 7.38224 0 6.99958C0 6.61691 0.593562 6.29958 1.30933 6.29958H30.6907C31.4064 6.29958 32 6.61691 32 6.99958C32 7.38224 31.4064 7.69958 30.6907 7.69958Z" fill="#35312B"/>
</svg>
