<svg width="36" height="36" viewBox="0 0 36 36" fill="none" xmlns="http://www.w3.org/2000/svg">
<path d="M17.6864 0C12.8816 0 12.2817 0.022108 10.3952 0.106118C8.51157 0.19455 7.22931 0.490797 6.1018 0.928535C4.93892 1.37954 3.95143 1.9853 2.96836 2.96836C1.9853 3.95143 1.37806 4.93745 0.928535 6.1018C0.490797 7.22931 0.193076 8.51157 0.106118 10.3952C0.0176864 12.2817 0 12.8816 0 17.6864C0 22.4912 0.022108 23.091 0.106118 24.9776C0.19455 26.8597 0.490797 28.1434 0.928535 29.271C1.3726 30.4513 2.06871 31.5206 2.96836 32.4044C3.85162 33.3047 4.92108 34.0009 6.1018 34.4442C7.23078 34.8805 8.51304 35.1797 10.3952 35.2666C12.2817 35.3551 12.8816 35.3727 17.6864 35.3727C22.4912 35.3727 23.091 35.3506 24.9776 35.2666C26.8597 35.1782 28.1434 34.8805 29.271 34.4442C30.451 33.9996 31.5202 33.3036 32.4044 32.4044C33.305 31.5214 34.0012 30.4518 34.4442 29.271C34.8805 28.1434 35.1797 26.8597 35.2666 24.9776C35.3551 23.091 35.3727 22.4912 35.3727 17.6864C35.3727 12.8816 35.3506 12.2817 35.2666 10.3952C35.1782 8.51304 34.8805 7.22783 34.4442 6.1018C33.9999 4.92156 33.3039 3.85228 32.4044 2.96836C31.5218 2.0673 30.4521 1.37097 29.271 0.928535C28.1434 0.490797 26.8597 0.193076 24.9776 0.106118C23.091 0.0176864 22.4912 0 17.6864 0ZM17.6864 3.18355C22.4072 3.18355 22.9702 3.20713 24.8346 3.28819C26.559 3.36925 27.4949 3.65518 28.1169 3.89985C28.9452 4.21967 29.5318 4.60288 30.1538 5.22043C30.7713 5.83945 31.1545 6.42752 31.4744 7.25583C31.7161 7.87781 32.005 8.81371 32.0831 10.5381C32.1671 12.404 32.1863 12.9641 32.1863 17.6864C32.1863 22.4086 32.1641 22.9702 32.0772 24.8346C31.9873 26.559 31.6999 27.4949 31.4567 28.1169C31.169 28.8844 30.7167 29.5797 30.1317 30.1538C29.56 30.7394 28.8653 31.1904 28.0978 31.4744C27.4787 31.7161 26.5281 32.005 24.8037 32.0831C22.926 32.1671 22.3733 32.1863 17.6422 32.1863C12.9096 32.1863 12.3569 32.1641 10.4807 32.0772C8.75476 31.9873 7.80411 31.6999 7.18509 31.4567C6.41707 31.1725 5.72254 30.7197 5.15263 30.1317C4.56099 29.5639 4.10724 28.8681 3.82615 28.0978C3.58296 27.4787 3.29704 26.5281 3.20713 24.8037C3.14081 22.9466 3.11722 22.3733 3.11722 17.6643C3.11722 12.9538 3.14081 12.379 3.20713 10.4998C3.29704 8.77539 3.58296 7.82622 3.82615 7.2072C4.13566 6.36709 4.53213 5.79229 5.15263 5.17179C5.77018 4.55424 6.34646 4.1563 7.18509 3.84826C7.80411 3.6036 8.73412 3.3162 10.4585 3.22776C12.3377 3.16144 12.8904 3.13933 17.6201 3.13933L17.6864 3.18355ZM17.6864 8.60442C16.4937 8.60442 15.3127 8.83933 14.2109 9.29574C13.109 9.75215 12.1078 10.4211 11.2645 11.2645C10.4211 12.1078 9.75215 13.109 9.29574 14.2109C8.83933 15.3127 8.60442 16.4937 8.60442 17.6864C8.60442 18.879 8.83933 20.06 9.29574 21.1619C9.75215 22.2638 10.4211 23.2649 11.2645 24.1083C12.1078 24.9516 13.109 25.6206 14.2109 26.077C15.3127 26.5334 16.4937 26.7683 17.6864 26.7683C20.0951 26.7683 22.4051 25.8115 24.1083 24.1083C25.8115 22.4051 26.7683 20.0951 26.7683 17.6864C26.7683 15.2777 25.8115 12.9677 24.1083 11.2645C22.4051 9.56127 20.0951 8.60442 17.6864 8.60442ZM17.6864 23.5818C14.4291 23.5818 11.7909 20.9436 11.7909 17.6864C11.7909 14.4291 14.4291 11.7909 17.6864 11.7909C20.9436 11.7909 23.5818 14.4291 23.5818 17.6864C23.5818 20.9436 20.9436 23.5818 17.6864 23.5818ZM29.2503 8.24627C29.2298 8.79547 28.9973 9.31535 28.6015 9.69666C28.2057 10.078 27.6775 10.291 27.128 10.291C26.5784 10.291 26.0502 10.078 25.6544 9.69666C25.2586 9.31535 25.0261 8.79547 25.0056 8.24627C25.0056 7.68339 25.2292 7.14355 25.6272 6.74553C26.0252 6.34751 26.5651 6.12391 27.128 6.12391C27.6908 6.12391 28.2307 6.34751 28.6287 6.74553C29.0267 7.14355 29.2503 7.68339 29.2503 8.24627Z" fill="#A5A988"/>
</svg>
